<svg width="78" height="79" viewBox="0 0 78 79" fill="none" xmlns="http://www.w3.org/2000/svg">
<rect opacity="0.1" width="77.2111" height="79" rx="15" fill="#68D585"/>
<path opacity="0.5" d="M54.8925 39C53.4238 45.7571 46.3249 50.8988 37.8087 50.8988C36.6013 50.8988 35.3961 50.7875 34.2075 50.5762C37.1276 53.1631 41.6485 54.468 46.3204 53.761L52.5736 56.9199C52.68 56.9733 52.7956 57 52.9111 57C53.0493 57 53.1867 56.9619 53.3083 56.8864C53.5303 56.7476 53.6662 56.502 53.6662 56.2374V50.4191C55.6167 48.6315 56.6867 46.3771 56.6867 44.035C56.6867 42.2443 56.0547 40.5146 54.8925 39Z" fill="#68D585"/>
<path d="M37.6283 23C28.7358 23 21.502 28.8198 21.502 35.9737C21.502 38.7233 22.5625 41.3448 24.5736 43.5747V51.2368C24.5736 51.5017 24.7119 51.7466 24.9376 51.8863C25.0613 51.9618 25.201 52 25.3416 52C25.4591 52 25.5766 51.9733 25.6848 51.9199L32.8495 48.3597C34.4123 48.7497 36.018 48.9474 37.6283 48.9474C46.5209 48.9474 53.7547 43.1275 53.7547 35.9737C53.7547 28.8198 46.5209 23 37.6283 23Z" fill="#68D585"/>
</svg>
