<svg width="78" height="79" viewBox="0 0 78 79" fill="none" xmlns="http://www.w3.org/2000/svg">
<rect opacity="0.1" width="77.2111" height="79" rx="15" fill="#40D1FF"/>
<path fill-rule="evenodd" clip-rule="evenodd" d="M29.3208 31.6786C29.3208 26.543 33.0576 21 39.0944 21C45.1312 21 48.8679 26.543 48.8679 31.6786C48.8679 39.2891 43.7946 44 39.0944 44C34.3941 44 29.3208 39.2891 29.3208 31.6786ZM30.9847 32.5444C31.3382 38.6262 35.3535 42.3571 39.0944 42.3571C42.8352 42.3571 46.8497 38.627 47.2048 32.5468C44.7818 32.215 42.5176 31.1693 40.7005 29.5297C38.4558 31.5619 35.593 32.6733 32.555 32.6733C32.0362 32.6733 31.5133 32.6216 30.9847 32.5444Z" fill="#40D1FF"/>
<path opacity="0.5" d="M53.7327 48.1827L45.2639 43C43.2791 44.7478 40.9065 45.7089 38.6057 45.7089C36.3048 45.7089 33.9323 44.7478 31.9474 43L23.4787 48.1827C22.2594 48.9287 21.502 50.2935 21.502 51.7439V58.1693C21.502 58.6287 21.8668 59 22.3164 59H37.7912V50.6931C37.7912 50.2337 38.1553 49.8624 38.6057 49.8624C39.0561 49.8624 39.4202 50.2337 39.4202 50.6931V59H54.895C55.3445 59 55.7094 58.6287 55.7094 58.1693V51.7439C55.7094 50.2935 54.952 48.9287 53.7327 48.1827Z" fill="#40D1FF"/>
</svg>
