<svg width="78" height="79" viewBox="0 0 78 79" fill="none" xmlns="http://www.w3.org/2000/svg">
<rect opacity="0.1" width="77.2111" height="79" rx="15" fill="#040000"/>
<path d="M46.5624 32.359C44.4953 30.253 41.7949 29.2 39.0944 29.2V40L31.6265 47.641C35.7519 51.862 42.4282 51.862 46.5536 47.641C50.679 43.42 50.679 36.58 46.5624 32.359V32.359Z" fill="white"/>
<path opacity="0.5" fill-rule="evenodd" clip-rule="evenodd" d="M21.502 40C21.502 30.055 29.3746 22 39.0944 22C48.8142 22 56.6868 30.055 56.6868 40C56.6868 49.936 48.8142 58 39.0944 58C29.3746 58 21.502 49.945 21.502 40ZM25.0204 40C25.0204 47.956 31.3185 54.4 39.0944 54.4C46.8702 54.4 53.1683 47.956 53.1683 40C53.1683 32.044 46.8702 25.6 39.0944 25.6C31.3185 25.6 25.0204 32.044 25.0204 40Z" fill="white"/>
</svg>
